# xmcd
#
# Track frame offsets: 
#        150
#        15988
#        27081
#        31088
#        40916
#        61712
#        77745
#        87517
#        92227
#        97098
#        112748
#        127743
#        139473
#        143385
#        157868
#        181033
#        189490
#        195695
#        201938
#        207793
#
# Disc length: 2945 seconds
#
# Revision: 0
# Processed by: cddbd v1.5.2PL0 Copyright (c) Steve Scherf et al.
# Submitted via: ExactAudioCopy v0.99pb4
#
DISCID=f60b7f14
DTITLE=The Wilders - Someone's Got to Pay
DYEAR=2008
DGENRE=Country
TTITLE0=Wild Old Nory
TTITLE1=Broken Down Gambler
TTITLE2=(an old murder ballad come to life)
TTITLE3=Sittin' on a Jury: Prologue
TTITLE4=My Final Plea
TTITLE5=Hey Little Darlin
TTITLE6=Old Dirty Boot
TTITLE7=(raised up my right hand)
TTITLE8=Sittin' on a Jury: The Prosecution
TTITLE9=Someone's Got to Pay
TTITLE10=Happy That Way
TTITLE11=Collard Greens
TTITLE12=(hey mr. judge)
TTITLE13=Sittin' on a Jury: The Defense
TTITLE14=Sorry I Let You Down
TTITLE15=Rock in the Woods
TTITLE16=(davey took a gun and killed his wife)
TTITLE17=Sittin' on a Jury: The Verdict
TTITLE18=Sittin' on a Jury: Epilogue
TTITLE19=Goodbye (I've Seen it All)
EXTD=
EXTT0=
EXTT1=
EXTT2=
EXTT3=
EXTT4=
EXTT5=
EXTT6=
EXTT7=
EXTT8=
EXTT9=
EXTT10=
EXTT11=
EXTT12=
EXTT13=
EXTT14=
EXTT15=
EXTT16=
EXTT17=
EXTT18=
EXTT19=
PLAYORDER=
